# xmcd
# 
# Track frame offsets:
#     150
#     28043
#     44272
#     77435
#     95086
#     110955
#     133527
#     147465
#     179562
#     202081
#     214847
#     229859
#     247523
#     263974
# 
# Disc length: 3900
# 
# Revision: 2
# Processed by: cddbd v1.5.2PL0 Copyright (c) Steve Scherf et al.
# Submitted via: fre:ac v1.0.31
# 
DISCID=ce0f3a0e
DTITLE=The Marshall Tucker Band - Greatest Hits
DYEAR=2011
DGENRE=Rock/Pop
TTITLE0=Take The Highway
TTITLE1=Blue Ridge Mountain Sky
TTITLE2=In My Own Way
TTITLE3=Fire On The Mountain
TTITLE4=Heard It In A Love Song
TTITLE5=Ramblin'
TTITLE6=Searchin' For A Rainbow
TTITLE7=I Should Have Never Started Lovin' You
TTITLE8=24 Hours At A Time
TTITLE9=Long Hard Ride
TTITLE10=Can't You See
TTITLE11=Too Stubborn
TTITLE12=This Ol' Cowboy
TTITLE13=Desert Skies
EXTD=
EXTT0=
EXTT1=
EXTT2=
EXTT3=
EXTT4=
EXTT5=
EXTT6=
EXTT7=
EXTT8=
EXTT9=
EXTT10=
EXTT11=
EXTT12=
EXTT13=
PLAYORDER=
